<?xml version="1.0" encoding="UTF-8" standalone="no"?>
<!-- Created with Inkscape (http://www.inkscape.org/) -->

<svg
   width="91.441803mm"
   height="91.441803mm"
   viewBox="0 0 91.441803 91.441803"
   version="1.1"
   id="svg1"
   xmlns="http://www.w3.org/2000/svg"
   xmlns:svg="http://www.w3.org/2000/svg">
  <defs
     id="defs1" />
  <g
     id="layer1"
     transform="translate(-59.279099,-102.7791)">
    <rect
       style="fill:#000000;stroke-width:0.2"
       id="rect1"
       width="91.441803"
       height="91.441803"
       x="59.279099"
       y="102.7791"
       ry="11.15144" />
    <g
       id="text20"
       style="font-size:9.87778px;font-family:'Perfect DOS VGA 437';-inkscape-font-specification:'Perfect DOS VGA 437, ';text-align:end;text-anchor:end;fill:#ffffff;stroke-width:0.2"
       aria-label="C:\&gt;naig&#10;Not An Illegal&#10;Game&#10;Abort, Retry,&#10;Fail?">
      <path
         style="font-size:16.9333px;text-align:start;text-anchor:start"
         d="m 72.323944,118.24932 h -2.116663 v 1.05833 H 69.14895 v 6.34999 h 1.058331 v 1.05833 h 2.116663 v -1.05833 h 1.058331 v -1.05833 h 1.058331 v 2.11666 h -1.058331 v 1.05833 H 69.14895 v -1.05833 h -1.058331 v -1.05833 h -1.058331 v -6.34999 h 1.058331 v -1.05833 h 1.058331 v -1.05833 h 4.233325 v 1.05833 h 1.058331 v 2.11666 h -1.058331 v -1.05833 h -1.058331 z m 7.408319,6.34999 h 2.116662 v 2.11666 h -2.116662 z m 0,-5.29166 h 2.116662 v 2.11666 h -2.116662 z m 12.699975,7.40832 h -1.058331 v -1.05833 h -1.058331 v -1.05833 h -1.058332 v -1.05834 h -1.058331 v -1.05833 h -1.058331 v -1.05833 h -1.058331 v -3.17499 h 1.058331 v 1.05833 h 1.058331 v 1.05833 h 1.058331 v 1.05833 h 1.058332 v 1.05833 h 1.058331 v 1.05833 h 1.058331 v 1.05834 h 1.058331 v 3.17499 h -1.058331 z m 4.233324,-8.46665 h 2.116663 v 1.05833 h 1.058331 v 1.05833 h 1.058334 v 1.05833 h 1.05833 v 1.05833 h 1.05833 v 1.05833 h -1.05833 v 1.05834 h -1.05833 v 1.05833 h -1.058334 v 1.05833 h -1.058331 v 1.05833 h -2.116663 v -1.05833 h 1.058332 v -1.05833 h 1.058331 v -1.05833 h 1.058331 v -1.05834 h 1.058334 v -1.05833 h -1.058334 v -1.05833 h -1.058331 v -1.05833 h -1.058331 v -1.05833 h -1.058332 z"
         id="path20" />
      <path
         style="font-size:16.9333px;text-align:start;text-anchor:start;fill:#d8d8d8"
         d="m 106.19054,121.42431 h -1.05833 v -1.05833 h 2.11667 v 1.05833 h 1.05833 v 6.34999 h -2.11667 z m 2.11667,-1.05833 h 3.17499 v 1.05833 h 1.05833 v 6.34999 h -2.11666 v -6.34999 h -2.11666 z m 10.58331,7.40832 h -3.17499 v -1.05833 h -1.05833 v -3.175 h 1.05833 v -1.05833 h 3.17499 v -1.05833 h -3.17499 v -1.05833 h 4.23332 v 1.05833 h 1.05833 v 5.29166 h 1.05833 v 1.05833 h -2.11666 v -1.05833 h -1.05006 l -0.008,-0.008 v -3.16673 h -2.11666 v 3.175 h 2.11666 z m 8.46665,-10.58331 h 2.11666 v 2.11666 h -2.11666 z m -1.05833,3.17499 h 3.17499 v 6.34999 h 1.05833 v 1.05833 h -4.23332 v -1.05833 h 1.05833 v -5.29166 h -1.05833 z m 11.64165,1.0666 0.008,-0.008 h 1.05007 v -1.05833 h 2.11666 v 1.05833 h -1.05833 v 8.46665 h -1.05833 v 1.05833 h -4.23333 v -1.05833 h -1.05833 v -1.05833 h 2.11666 v 1.05833 h 2.11667 v -2.11666 h -3.175 v -1.05833 h -1.05833 v -5.29166 h 1.05833 v -1.05833 h 3.175 v 1.05833 h -2.11667 v 5.29166 h 2.11667 z"
         id="path21" />
      <path
         style="text-align:start;text-anchor:start;fill:#a8a8a8"
         d="m 69.501733,139.68054 h -0.617362 v -0.61736 H 68.26701 v 3.70416 h -1.234722 v -6.17361 h 1.234722 v 0.61736 h 0.617361 v 0.61736 h 0.617362 v 0.61737 h 0.617361 v -1.85209 h 1.234722 v 6.17361 h -1.234722 v -2.46944 h -0.617361 z m 6.173612,-0.61736 h -1.852084 v 3.0868 h 1.852084 z m -2.469445,3.0868 h -0.617361 v -3.0868 H 73.2059 v -0.61736 h 3.086806 v 0.61736 h 0.617361 v 3.0868 h -0.617361 v 0.61736 H 73.2059 Z m 4.93889,-3.70416 h 1.234722 v -1.23473 h 0.617361 v -0.61736 h 0.617362 v 1.85209 h 1.234722 v 0.61736 h -1.234722 v 3.0868 h 0.617361 v -0.61736 h 1.234722 v 0.61736 h -0.617361 v 0.61736 h -1.852084 v -0.61736 h -0.617361 v -3.0868 H 78.14479 Z m 13.581947,-0.61737 h -0.617361 v 0.61737 h -0.617362 v 1.23472 h 1.852084 v -1.23472 h -0.617361 z m 0.617361,4.93889 v -2.46944 h -1.852084 v 2.46944 h -1.234722 v -4.32152 h 0.617361 v -0.61737 h 0.617361 v -0.61736 h 0.617362 v -0.61736 h 0.617361 v 0.61736 h 0.617361 v 0.61736 h 0.617361 v 0.61737 h 0.617362 v 4.32152 z m 3.086807,-3.70416 h -0.617362 v -0.61736 h 1.234723 v 0.61736 h 0.617361 v 3.70416 h -1.234722 z m 1.234722,-0.61736 h 1.852084 v 0.61736 h 0.617361 v 3.70416 H 97.90035 v -3.70416 h -1.234723 z m 10.495143,-1.85209 h 2.46944 v 0.61736 h -0.61736 v 4.93889 h 0.61736 v 0.61736 h -2.46944 v -0.61736 h 0.61736 v -4.93889 h -0.61736 z m 5.55625,0 h 1.85208 v 5.55625 h 0.61736 v 0.61736 h -2.46944 v -0.61736 h 0.61736 v -4.93889 h -0.61736 z m 5.55625,0 h 1.85208 v 5.55625 h 0.61737 v 0.61736 h -2.46945 v -0.61736 h 0.61736 v -4.93889 h -0.61736 z m 5.55625,3.08681 h 1.85209 v -0.61736 h -1.85209 z m -0.61736,-1.23472 h 3.08681 v 0.61736 h 0.61736 v 1.23472 h -3.08681 v 1.85208 h 1.85209 v -0.61736 h 1.23472 v 0.61736 h -0.61736 v 0.61736 h -3.08681 v -0.61736 h -0.61736 v -3.0868 h 0.61736 z m 7.40834,0.62218 0.005,-0.005 h 0.61254 v -0.61736 h 1.23472 v 0.61736 h -0.61736 v 4.93889 h -0.61736 v 0.61736 h -2.46945 v -0.61736 h -0.61736 v -0.61736 h 1.23472 v 0.61736 h 1.23473 v -1.23473 h -1.85209 v -0.61736 h -0.61736 v -3.0868 h 0.61736 v -0.61736 h 1.85209 v 0.61736 h -1.23473 v 3.0868 h 1.23473 z m 5.55624,3.69934 h -1.85208 v -0.61736 h -0.61736 v -1.85208 h 0.61736 v -0.61736 h 1.85208 v -0.61736 h -1.85208 v -0.61736 h 2.46944 v 0.61736 h 0.61737 v 3.0868 h 0.61736 v 0.61736 h -1.23473 v -0.61736 h -0.61253 l -0.005,-0.005 v -1.84726 h -1.23472 v 1.85208 h 1.23472 z m 4.32153,-6.17361 h 1.85209 v 5.55625 h 0.61736 v 0.61736 h -2.46945 v -0.61736 h 0.61736 v -4.93889 h -0.61736 z"
         id="path22" />
      <path
         style="text-align:start;text-anchor:start;fill:#a8a8a8"
         d="m 68.884371,152.02776 h 2.469445 v 3.08681 h -0.617361 v -0.61736 h -0.617361 v -1.85209 h -1.234723 z m 1.234723,-2.46944 h -1.234723 v 0.61736 H 68.26701 v 3.70417 h 0.617361 v 0.61736 h 1.234723 v 0.61736 H 68.26701 v -0.61736 h -0.617361 v -0.61736 h -0.617361 v -3.70417 h 0.617361 v -0.61736 h 0.617361 v -0.61736 h 2.469445 v 0.61736 h 0.617361 v 1.23472 h -0.617361 v -0.61736 h -0.617361 z m 4.93889,5.55625 H 73.2059 v -0.61736 h -0.617361 v -1.85209 H 73.2059 v -0.61736 h 1.852084 V 151.4104 H 73.2059 v -0.61736 h 2.469445 v 0.61736 h 0.617361 v 3.08681 h 0.617361 v 0.61736 h -1.234722 v -0.61736 h -0.612538 l -0.0048,-0.005 v -1.84727 h -1.234723 v 1.85209 h 1.234723 z m 6.173612,-3.08681 h -0.617361 v 2.46945 h -0.617362 v -2.46945 h -0.617361 v 3.08681 H 78.14479 v -4.32153 h 1.852083 v 0.61736 h 0.617362 v -0.61736 h 1.234722 v 0.61736 h 0.617361 v 3.70417 h -1.234722 z m 3.704167,0 h 1.852084 v -0.61736 h -1.852084 z m -0.617361,-1.23472 h 3.086806 v 0.61736 h 0.617361 v 1.23472 h -3.086806 v 1.85209 h 1.852084 v -0.61736 h 1.234722 v 0.61736 h -0.617361 v 0.61736 h -3.086806 v -0.61736 H 83.70104 v -3.08681 h 0.617362 z"
         id="path23" />
      <path
         style="text-align:start;text-anchor:start;fill:#a8a8a8"
         d="m 69.501733,162.5229 h -0.617362 v 0.61737 H 68.26701 v 1.23472 h 1.852084 v -1.23472 h -0.617361 z m 0.617361,4.93889 v -2.46944 H 68.26701 v 2.46944 h -1.234722 v -4.32152 h 0.617361 v -0.61737 h 0.617361 v -0.61736 h 0.617361 v -0.61736 h 0.617362 v 0.61736 h 0.617361 v 0.61736 h 0.617361 v 0.61737 h 0.617361 v 4.32152 z m 4.93889,-3.70416 h -0.617362 v 3.0868 h 1.234723 v -2.46944 h -0.617361 z m -0.617362,-0.61736 h 1.234723 v 0.61736 h 0.617361 v 0.61736 h 0.617361 v 2.46944 h -0.617361 v 0.61736 H 73.2059 v -5.55625 h -0.617361 v -0.61736 h 1.852083 z m 6.790974,0.61736 h -1.852084 v 3.0868 h 1.852084 z m -2.469445,3.0868 H 78.14479 v -3.0868 h 0.617361 v -0.61736 h 3.086806 v 0.61736 h 0.617361 v 3.0868 h -0.617361 v 0.61736 h -3.086806 z m 7.408334,-2.46944 h -0.617361 v 2.46944 h 0.617361 v 0.61736 H 83.70104 v -0.61736 h 0.617362 v -3.0868 H 83.70104 v -0.61736 h 1.234723 v 0.61736 h 0.617361 v -0.61736 h 1.852084 v 0.61736 h 0.617361 v 1.23472 h -1.234722 v -1.23472 h -0.617362 z m 3.086807,-1.23472 h 1.234722 v -1.23473 h 0.617362 v -0.61736 h 0.617361 v 1.85209 h 1.234722 v 0.61736 h -1.234722 v 3.0868 h 0.617361 v -0.61736 h 1.234723 v 0.61736 h -0.617362 v 0.61736 h -1.852083 v -0.61736 h -0.617362 v -3.0868 h -1.234722 z m 6.790974,4.32152 h 0.617361 v -1.85208 h 1.234723 v 1.85208 h -0.617362 v 0.61737 h -1.234722 z m 12.964584,-5.55625 h -1.23472 v 1.85209 h 1.23472 z m 0,3.08681 h -0.61736 v -0.61736 h -0.61736 v 3.0868 h -1.85209 v -0.61736 h 0.61737 v -4.93889 h -0.61737 v -0.61736 h 3.70417 v 0.61736 h 0.61736 v 1.85209 h -0.61736 v 1.23472 h 0.61736 v 2.46944 h -1.23472 z m 3.70417,-0.61736 h 1.85208 v -0.61736 h -1.85208 z m -0.61736,-1.23472 h 3.0868 v 0.61736 h 0.61736 v 1.23472 h -3.0868 v 1.85208 h 1.85208 v -0.61736 h 1.23472 v 0.61736 h -0.61736 v 0.61736 h -3.0868 v -0.61736 h -0.61736 v -3.0868 h 0.61736 z m 4.93889,0 h 1.23472 v -1.23473 h 0.61736 v -0.61736 h 0.61736 v 1.85209 h 1.23473 v 0.61736 h -1.23473 v 3.0868 h 0.61736 v -0.61736 h 1.23473 v 0.61736 h -0.61736 v 0.61736 h -1.85209 v -0.61736 h -0.61736 v -3.0868 h -1.23472 z m 8.02569,1.23472 h -0.61736 v 2.46944 h 0.61736 v 0.61736 h -2.46944 v -0.61736 h 0.61736 v -3.0868 h -0.61736 v -0.61736 h 1.23472 v 0.61736 h 0.61736 v -0.61736 h 1.85209 v 0.61736 h 0.61736 v 1.23472 h -1.23472 v -1.23472 h -0.61737 z m 3.08681,4.32153 h 2.46945 v -0.61736 h 0.61736 v -0.61737 h -2.46945 v -0.61736 h -0.61736 v -3.70416 h 1.23472 v 3.70416 h 1.85209 v -3.70416 h 1.23472 v 4.93889 h -0.61736 v 0.61736 h -0.61736 v 0.61736 h -3.08681 z m 6.79097,-1.23473 h 0.61736 v -1.85208 h 1.23472 v 1.85208 h -0.61736 v 0.61737 h -1.23472 z"
         id="path24" />
      <path
         style="text-align:start;text-anchor:start;fill:#a8a8a8"
         d="m 70.736455,174.87013 h -0.617361 v -0.61736 h -1.234723 v 1.85208 h 0.617362 v -0.61736 h 0.617361 v 1.85208 h -0.617361 v -0.61736 h -0.617362 v 2.46945 h 0.617362 v 0.61736 h -2.469445 v -0.61736 h 0.617361 v -4.93889 h -0.617361 v -0.61736 h 4.321528 v 1.85208 h -0.617361 z m 4.321529,4.93889 H 73.2059 v -0.61736 h -0.617361 v -1.85209 H 73.2059 v -0.61736 h 1.852084 v -0.61736 H 73.2059 v -0.61736 h 2.469445 v 0.61736 h 0.617361 v 3.08681 h 0.617361 v 0.61736 h -1.234722 v -0.61736 h -0.612538 l -0.0048,-0.005 v -1.84727 h -1.234723 v 1.85209 h 1.234723 z m 4.938889,-6.17361 h 1.234723 v 1.23472 h -1.234723 z m -0.617361,1.85208 h 1.852084 v 3.70417 h 0.617361 v 0.61736 h -2.469445 v -0.61736 h 0.617361 v -3.08681 h -0.617361 z m 5.556251,-1.85208 h 1.852084 v 5.55625 h 0.617361 v 0.61736 h -2.469445 v -0.61736 h 0.617361 v -4.93889 h -0.617361 z m 6.173613,4.93889 h 1.234722 v 1.23472 h -1.234722 z m 0,-2.46945 h 0.617361 v -0.61736 h 0.617361 v -1.23472 h -1.852084 v 1.23472 h -1.234722 v -1.23472 h 0.617361 v -0.61736 h 3.086806 v 0.61736 h 0.617362 v 1.23472 h -0.617362 v 0.61736 h -0.617361 v 1.85209 h -1.234722 z"
         id="path25" />
    </g>
  </g>
</svg>
